<mxfile host="app.diagrams.net" modified="2024-07-04T13:45:44.152Z" agent="Mozilla/5.0 (Windows NT 10.0; Win64; x64) AppleWebKit/537.36 (KHTML, like Gecko) Chrome/126.0.0.0 Safari/537.36" etag="Sq7Bxb9nCaJACGju2wVP" version="24.6.4" type="google">
  <diagram id="C5RBs43oDa-KdzZeNtuy" name="Page-1">
    <mxGraphModel grid="1" page="1" gridSize="10" guides="1" tooltips="1" connect="1" arrows="1" fold="1" pageScale="1" pageWidth="827" pageHeight="1169" math="0" shadow="0">
      <root>
        <mxCell id="WIyWlLk6GJQsqaUBKTNV-0" />
        <mxCell id="WIyWlLk6GJQsqaUBKTNV-1" parent="WIyWlLk6GJQsqaUBKTNV-0" />
        <mxCell id="vEcRF-8L0XAOp8H8IPoP-20" value="" style="edgeStyle=orthogonalEdgeStyle;rounded=0;orthogonalLoop=1;jettySize=auto;html=1;" edge="1" parent="WIyWlLk6GJQsqaUBKTNV-1" source="vEcRF-8L0XAOp8H8IPoP-0" target="vEcRF-8L0XAOp8H8IPoP-1">
          <mxGeometry relative="1" as="geometry" />
        </mxCell>
        <mxCell id="vEcRF-8L0XAOp8H8IPoP-0" value="Begin" style="ellipse;whiteSpace=wrap;html=1;" vertex="1" parent="WIyWlLk6GJQsqaUBKTNV-1">
          <mxGeometry x="354" y="80" width="120" height="80" as="geometry" />
        </mxCell>
        <mxCell id="vEcRF-8L0XAOp8H8IPoP-21" style="edgeStyle=orthogonalEdgeStyle;rounded=0;orthogonalLoop=1;jettySize=auto;html=1;entryX=0.5;entryY=0;entryDx=0;entryDy=0;" edge="1" parent="WIyWlLk6GJQsqaUBKTNV-1" source="vEcRF-8L0XAOp8H8IPoP-1" target="vEcRF-8L0XAOp8H8IPoP-2">
          <mxGeometry relative="1" as="geometry" />
        </mxCell>
        <mxCell id="vEcRF-8L0XAOp8H8IPoP-1" value="Input a, b, c" style="shape=parallelogram;perimeter=parallelogramPerimeter;whiteSpace=wrap;html=1;fixedSize=1;" vertex="1" parent="WIyWlLk6GJQsqaUBKTNV-1">
          <mxGeometry x="314" y="210" width="200" height="50" as="geometry" />
        </mxCell>
        <mxCell id="vEcRF-8L0XAOp8H8IPoP-22" style="edgeStyle=orthogonalEdgeStyle;rounded=0;orthogonalLoop=1;jettySize=auto;html=1;entryX=0.5;entryY=0;entryDx=0;entryDy=0;" edge="1" parent="WIyWlLk6GJQsqaUBKTNV-1" source="vEcRF-8L0XAOp8H8IPoP-2" target="vEcRF-8L0XAOp8H8IPoP-3">
          <mxGeometry relative="1" as="geometry" />
        </mxCell>
        <mxCell id="vEcRF-8L0XAOp8H8IPoP-2" value="a = max&amp;nbsp;" style="rounded=1;whiteSpace=wrap;html=1;" vertex="1" parent="WIyWlLk6GJQsqaUBKTNV-1">
          <mxGeometry x="344" y="300" width="140" height="80" as="geometry" />
        </mxCell>
        <mxCell id="vEcRF-8L0XAOp8H8IPoP-7" style="edgeStyle=orthogonalEdgeStyle;rounded=0;orthogonalLoop=1;jettySize=auto;html=1;entryX=0.5;entryY=0;entryDx=0;entryDy=0;" edge="1" parent="WIyWlLk6GJQsqaUBKTNV-1" source="vEcRF-8L0XAOp8H8IPoP-3" target="vEcRF-8L0XAOp8H8IPoP-4">
          <mxGeometry relative="1" as="geometry" />
        </mxCell>
        <mxCell id="vEcRF-8L0XAOp8H8IPoP-8" value="." style="edgeStyle=orthogonalEdgeStyle;rounded=0;orthogonalLoop=1;jettySize=auto;html=1;entryX=0.5;entryY=0;entryDx=0;entryDy=0;" edge="1" parent="WIyWlLk6GJQsqaUBKTNV-1" target="vEcRF-8L0XAOp8H8IPoP-11">
          <mxGeometry relative="1" as="geometry">
            <mxPoint x="450" y="480" as="sourcePoint" />
            <mxPoint x="616" y="550" as="targetPoint" />
            <Array as="points">
              <mxPoint x="617" y="480" />
              <mxPoint x="617" y="540" />
            </Array>
          </mxGeometry>
        </mxCell>
        <mxCell id="vEcRF-8L0XAOp8H8IPoP-3" value="a &amp;gt; b and a &amp;gt; c&amp;nbsp;&amp;nbsp;" style="rhombus;whiteSpace=wrap;html=1;" vertex="1" parent="WIyWlLk6GJQsqaUBKTNV-1">
          <mxGeometry x="344" y="430" width="140" height="80" as="geometry" />
        </mxCell>
        <mxCell id="vEcRF-8L0XAOp8H8IPoP-29" style="edgeStyle=orthogonalEdgeStyle;rounded=0;orthogonalLoop=1;jettySize=auto;html=1;exitX=0.5;exitY=1;exitDx=0;exitDy=0;entryX=0;entryY=0.5;entryDx=0;entryDy=0;" edge="1" parent="WIyWlLk6GJQsqaUBKTNV-1" source="vEcRF-8L0XAOp8H8IPoP-4" target="vEcRF-8L0XAOp8H8IPoP-18">
          <mxGeometry relative="1" as="geometry" />
        </mxCell>
        <mxCell id="vEcRF-8L0XAOp8H8IPoP-4" value="max = a" style="whiteSpace=wrap;html=1;" vertex="1" parent="WIyWlLk6GJQsqaUBKTNV-1">
          <mxGeometry x="140" y="750" width="140" height="80" as="geometry" />
        </mxCell>
        <mxCell id="vEcRF-8L0XAOp8H8IPoP-6" style="edgeStyle=orthogonalEdgeStyle;rounded=0;orthogonalLoop=1;jettySize=auto;html=1;exitX=1;exitY=0;exitDx=0;exitDy=0;" edge="1" parent="WIyWlLk6GJQsqaUBKTNV-1">
          <mxGeometry relative="1" as="geometry">
            <mxPoint x="730" y="540" as="targetPoint" />
            <mxPoint x="720" y="540" as="sourcePoint" />
          </mxGeometry>
        </mxCell>
        <mxCell id="vEcRF-8L0XAOp8H8IPoP-9" value="True" style="text;html=1;align=center;verticalAlign=middle;resizable=0;points=[];autosize=1;strokeColor=none;fillColor=none;" vertex="1" parent="WIyWlLk6GJQsqaUBKTNV-1">
          <mxGeometry x="250" y="440" width="50" height="30" as="geometry" />
        </mxCell>
        <mxCell id="vEcRF-8L0XAOp8H8IPoP-10" value="False" style="text;html=1;align=center;verticalAlign=middle;resizable=0;points=[];autosize=1;strokeColor=none;fillColor=none;" vertex="1" parent="WIyWlLk6GJQsqaUBKTNV-1">
          <mxGeometry x="535" y="438" width="50" height="30" as="geometry" />
        </mxCell>
        <mxCell id="vEcRF-8L0XAOp8H8IPoP-14" style="edgeStyle=orthogonalEdgeStyle;rounded=0;orthogonalLoop=1;jettySize=auto;html=1;entryX=0.5;entryY=0;entryDx=0;entryDy=0;" edge="1" parent="WIyWlLk6GJQsqaUBKTNV-1" source="vEcRF-8L0XAOp8H8IPoP-11" target="vEcRF-8L0XAOp8H8IPoP-13">
          <mxGeometry relative="1" as="geometry" />
        </mxCell>
        <mxCell id="vEcRF-8L0XAOp8H8IPoP-16" style="edgeStyle=orthogonalEdgeStyle;rounded=0;orthogonalLoop=1;jettySize=auto;html=1;entryX=0.5;entryY=0;entryDx=0;entryDy=0;" edge="1" parent="WIyWlLk6GJQsqaUBKTNV-1" source="vEcRF-8L0XAOp8H8IPoP-11" target="vEcRF-8L0XAOp8H8IPoP-15">
          <mxGeometry relative="1" as="geometry" />
        </mxCell>
        <mxCell id="vEcRF-8L0XAOp8H8IPoP-11" value="b &amp;gt; c" style="rhombus;whiteSpace=wrap;html=1;" vertex="1" parent="WIyWlLk6GJQsqaUBKTNV-1">
          <mxGeometry x="550" y="540" width="140" height="80" as="geometry" />
        </mxCell>
        <mxCell id="vEcRF-8L0XAOp8H8IPoP-25" value="" style="edgeStyle=orthogonalEdgeStyle;rounded=0;orthogonalLoop=1;jettySize=auto;html=1;" edge="1" parent="WIyWlLk6GJQsqaUBKTNV-1" source="vEcRF-8L0XAOp8H8IPoP-13" target="vEcRF-8L0XAOp8H8IPoP-18">
          <mxGeometry relative="1" as="geometry" />
        </mxCell>
        <mxCell id="vEcRF-8L0XAOp8H8IPoP-13" value="max = b" style="whiteSpace=wrap;html=1;" vertex="1" parent="WIyWlLk6GJQsqaUBKTNV-1">
          <mxGeometry x="395" y="640" width="140" height="80" as="geometry" />
        </mxCell>
        <mxCell id="vEcRF-8L0XAOp8H8IPoP-30" style="edgeStyle=orthogonalEdgeStyle;rounded=0;orthogonalLoop=1;jettySize=auto;html=1;entryX=1;entryY=0.5;entryDx=0;entryDy=0;" edge="1" parent="WIyWlLk6GJQsqaUBKTNV-1" source="vEcRF-8L0XAOp8H8IPoP-15" target="vEcRF-8L0XAOp8H8IPoP-18">
          <mxGeometry relative="1" as="geometry" />
        </mxCell>
        <mxCell id="vEcRF-8L0XAOp8H8IPoP-15" value="max = c&amp;nbsp;" style="whiteSpace=wrap;html=1;" vertex="1" parent="WIyWlLk6GJQsqaUBKTNV-1">
          <mxGeometry x="700" y="820" width="140" height="80" as="geometry" />
        </mxCell>
        <mxCell id="vEcRF-8L0XAOp8H8IPoP-32" value="" style="edgeStyle=orthogonalEdgeStyle;rounded=0;orthogonalLoop=1;jettySize=auto;html=1;" edge="1" parent="WIyWlLk6GJQsqaUBKTNV-1" source="vEcRF-8L0XAOp8H8IPoP-18" target="vEcRF-8L0XAOp8H8IPoP-19">
          <mxGeometry relative="1" as="geometry" />
        </mxCell>
        <mxCell id="vEcRF-8L0XAOp8H8IPoP-18" value="Output max" style="shape=parallelogram;perimeter=parallelogramPerimeter;whiteSpace=wrap;html=1;fixedSize=1;" vertex="1" parent="WIyWlLk6GJQsqaUBKTNV-1">
          <mxGeometry x="365" y="830" width="200" height="60" as="geometry" />
        </mxCell>
        <mxCell id="vEcRF-8L0XAOp8H8IPoP-19" value="End" style="ellipse;whiteSpace=wrap;html=1;" vertex="1" parent="WIyWlLk6GJQsqaUBKTNV-1">
          <mxGeometry x="405" y="940" width="120" height="80" as="geometry" />
        </mxCell>
        <mxCell id="vEcRF-8L0XAOp8H8IPoP-33" value="True" style="text;html=1;align=center;verticalAlign=middle;resizable=0;points=[];autosize=1;strokeColor=none;fillColor=none;" vertex="1" parent="WIyWlLk6GJQsqaUBKTNV-1">
          <mxGeometry x="485" y="555" width="50" height="30" as="geometry" />
        </mxCell>
        <mxCell id="vEcRF-8L0XAOp8H8IPoP-34" value="False" style="text;html=1;align=center;verticalAlign=middle;resizable=0;points=[];autosize=1;strokeColor=none;fillColor=none;" vertex="1" parent="WIyWlLk6GJQsqaUBKTNV-1">
          <mxGeometry x="720" y="555" width="50" height="30" as="geometry" />
        </mxCell>
      </root>
    </mxGraphModel>
  </diagram>
</mxfile>
